<?xml version="1.0" encoding="UTF-8" standalone="no"?>
<!DOCTYPE svg PUBLIC "-//W3C//DTD SVG 1.1//EN" "http://www.w3.org/Graphics/SVG/1.1/DTD/svg11.dtd">
<svg width="100%" height="100%" viewBox="0 0 184 36" version="1.1" xmlns="http://www.w3.org/2000/svg" xmlns:xlink="http://www.w3.org/1999/xlink" xml:space="preserve" xmlns:serif="http://www.serif.com/" style="fill-rule:evenodd;clip-rule:evenodd;stroke-linejoin:round;stroke-miterlimit:2;">
    <g transform="matrix(1,0,0,1,-1209.515812,-408.047824)">
        <g transform="matrix(1,0,0,0.546944,903.326675,0)">
            <g transform="matrix(1,0,0,1.828341,275.289137,17.997159)">
                <path d="M196.906,398.304C206.66,398.304 214.568,406.212 214.568,415.966C214.568,415.967 214.568,415.967 214.568,415.967C214.568,425.722 206.66,433.629 196.906,433.629C161.827,433.629 83.741,433.629 48.662,433.629C38.908,433.629 31,425.722 31,415.967C31,415.967 31,415.967 31,415.966C31,406.212 38.908,398.304 48.662,398.304C83.741,398.304 161.827,398.304 196.906,398.304Z" style="fill:url(#_Linear1);"/>
            </g>
            <g transform="matrix(1,0,0,1.828341,275.289137,17.997159)">
                <path d="M196.906,398.204C206.715,398.204 214.668,406.157 214.668,415.967C214.668,425.777 206.715,433.729 196.906,433.729L48.662,433.729C38.852,433.729 30.9,425.777 30.9,415.967C30.9,406.157 38.852,398.204 48.662,398.204L196.906,398.204ZM196.906,398.404L48.662,398.404C38.963,398.404 31.1,406.268 31.1,415.967C31.1,425.666 38.963,433.529 48.662,433.529L196.906,433.529C206.605,433.529 214.468,425.666 214.468,415.967C214.468,406.268 206.605,398.404 196.906,398.404Z" style="fill:rgb(32,32,58);"/>
            </g>
            <g transform="matrix(0.579871,0,0,1.060202,287.23517,346.173541)">
                <path d="M57.512,399.123L67.194,399.123C69.108,399.123 70.651,399.663 71.823,400.742C72.995,401.821 73.581,403.337 73.581,405.29C73.581,406.97 73.059,408.432 72.014,409.677C70.969,410.923 69.362,411.545 67.194,411.545L60.427,411.545L60.427,420.642L57.512,420.642L57.512,399.123ZM70.637,405.305C70.637,403.723 70.051,402.649 68.879,402.082C68.234,401.779 67.351,401.628 66.228,401.628L60.427,401.628L60.427,409.084L66.228,409.084C67.536,409.084 68.598,408.806 69.414,408.249C70.229,407.693 70.637,406.711 70.637,405.305ZM86.53,398.537C90.329,398.537 93.142,399.758 94.968,402.199C96.394,404.104 97.106,406.54 97.106,409.509C97.106,412.722 96.291,415.393 94.66,417.522C92.746,420.022 90.017,421.272 86.472,421.272C83.161,421.272 80.559,420.178 78.664,417.99C76.975,415.881 76.13,413.215 76.13,409.992C76.13,407.082 76.853,404.592 78.298,402.522C80.153,399.865 82.897,398.537 86.53,398.537ZM86.823,418.664C89.392,418.664 91.249,417.744 92.397,415.903C93.544,414.062 94.118,411.946 94.118,409.553C94.118,407.024 93.457,404.988 92.133,403.445C90.81,401.902 89.001,401.13 86.706,401.13C84.479,401.13 82.663,401.894 81.257,403.423C79.851,404.951 79.147,407.204 79.147,410.183C79.147,412.566 79.75,414.575 80.957,416.211C82.163,417.846 84.118,418.664 86.823,418.664ZM100.93,399.123L110.891,399.123C112.531,399.123 113.884,399.363 114.948,399.841C116.97,400.759 117.98,402.453 117.98,404.924C117.98,406.213 117.714,407.268 117.182,408.088C116.65,408.908 115.905,409.568 114.948,410.066C115.788,410.407 116.42,410.857 116.845,411.413C117.27,411.97 117.507,412.873 117.556,414.123L117.658,417.009C117.687,417.829 117.756,418.44 117.863,418.84C118.039,419.524 118.352,419.963 118.801,420.158L118.801,420.642L115.227,420.642C115.129,420.456 115.051,420.217 114.992,419.924C114.934,419.631 114.885,419.065 114.846,418.225L114.67,414.636C114.602,413.23 114.079,412.287 113.103,411.809C112.546,411.545 111.672,411.413 110.48,411.413L103.845,411.413L103.845,420.642L100.93,420.642L100.93,399.123ZM110.583,408.982C111.95,408.982 113.032,408.708 113.828,408.161C114.624,407.614 115.021,406.628 115.021,405.202C115.021,403.669 114.465,402.624 113.352,402.068C112.756,401.775 111.96,401.628 110.964,401.628L103.845,401.628L103.845,408.982L110.583,408.982ZM137.375,399.123L137.375,401.687L130.124,401.687L130.124,420.642L127.165,420.642L127.165,401.687L119.914,401.687L119.914,399.123L137.375,399.123ZM144.084,399.123L147.38,399.123L155.187,420.642L151.994,420.642L149.812,414.196L141.301,414.196L138.972,420.642L135.983,420.642L144.084,399.123ZM148.874,411.823L145.607,402.317L142.136,411.823L148.874,411.823ZM158.117,399.123L173.044,399.123L173.044,401.76L161.032,401.76L161.032,408.293L171.594,408.293L171.594,410.857L161.032,410.857L161.032,420.642L158.117,420.642L158.117,399.123ZM185.451,398.537C189.25,398.537 192.062,399.758 193.889,402.199C195.314,404.104 196.027,406.54 196.027,409.509C196.027,412.722 195.212,415.393 193.581,417.522C191.667,420.022 188.937,421.272 185.393,421.272C182.082,421.272 179.479,420.178 177.585,417.99C175.895,415.881 175.051,413.215 175.051,409.992C175.051,407.082 175.773,404.592 177.219,402.522C179.074,399.865 181.818,398.537 185.451,398.537ZM185.744,418.664C188.312,418.664 190.17,417.744 191.318,415.903C192.465,414.062 193.039,411.946 193.039,409.553C193.039,407.024 192.377,404.988 191.054,403.445C189.731,401.902 187.922,401.13 185.627,401.13C183.4,401.13 181.584,401.894 180.178,403.423C178.771,404.951 178.068,407.204 178.068,410.183C178.068,412.566 178.671,414.575 179.877,416.211C181.083,417.846 183.039,418.664 185.744,418.664ZM199.499,399.123L202.414,399.123L202.414,418.078L213.312,418.078L213.312,420.642L199.499,420.642L199.499,399.123ZM216.843,399.123L219.787,399.123L219.787,420.642L216.843,420.642L216.843,399.123ZM233.806,398.537C237.604,398.537 240.417,399.758 242.243,402.199C243.669,404.104 244.382,406.54 244.382,409.509C244.382,412.722 243.566,415.393 241.936,417.522C240.021,420.022 237.292,421.272 233.747,421.272C230.437,421.272 227.834,420.178 225.939,417.99C224.25,415.881 223.405,413.215 223.405,409.992C223.405,407.082 224.128,404.592 225.573,402.522C227.429,399.865 230.173,398.537 233.806,398.537ZM234.099,418.664C236.667,418.664 238.525,417.744 239.672,415.903C240.82,414.062 241.394,411.946 241.394,409.553C241.394,407.024 240.732,404.988 239.409,403.445C238.085,401.902 236.276,401.13 233.981,401.13C231.755,401.13 229.938,401.894 228.532,403.423C227.126,404.951 226.423,407.204 226.423,410.183C226.423,412.566 227.026,414.575 228.232,416.211C229.438,417.846 231.394,418.664 234.099,418.664ZM260.803,399.123L264.099,399.123L271.906,420.642L268.713,420.642L266.53,414.196L258.02,414.196L255.69,420.642L252.702,420.642L260.803,399.123ZM265.593,411.823L262.326,402.317L258.854,411.823L265.593,411.823ZM294.245,420.583L292.78,422.356L289.455,419.821C288.654,420.261 287.788,420.613 286.855,420.876C285.922,421.14 284.904,421.272 283.801,421.272C280.461,421.272 277.844,420.178 275.949,417.99C274.279,415.862 273.444,413.196 273.444,409.992C273.444,407.082 274.167,404.592 275.612,402.522C277.468,399.865 280.212,398.537 283.845,398.537C287.644,398.537 290.456,399.758 292.282,402.199C293.708,404.104 294.421,406.54 294.421,409.509C294.421,410.896 294.25,412.229 293.908,413.508C293.391,415.461 292.517,417.053 291.286,418.283L294.245,420.583ZM284.152,418.664C284.758,418.664 285.324,418.623 285.852,418.54C286.379,418.457 286.838,418.293 287.229,418.049L284.87,416.203L286.335,414.402L289.147,416.584C290.036,415.569 290.639,414.431 290.957,413.171C291.274,411.911 291.433,410.705 291.433,409.553C291.433,407.024 290.771,404.988 289.448,403.445C288.124,401.902 286.315,401.13 284.02,401.13C281.696,401.13 279.855,401.87 278.498,403.349C277.141,404.829 276.462,407.107 276.462,410.183C276.462,412.771 277.114,414.831 278.417,416.364C279.721,417.898 281.633,418.664 284.152,418.664ZM301.057,399.123L301.057,412.424C301.057,413.987 301.35,415.285 301.936,416.321C302.805,417.883 304.27,418.664 306.33,418.664C308.801,418.664 310.48,417.82 311.369,416.13C311.848,415.212 312.087,413.977 312.087,412.424L312.087,399.123L315.046,399.123L315.046,411.208C315.046,413.855 314.689,415.891 313.977,417.317C312.668,419.914 310.197,421.213 306.564,421.213C302.932,421.213 300.466,419.914 299.167,417.317C298.454,415.891 298.098,413.855 298.098,411.208L298.098,399.123L301.057,399.123ZM320.217,399.123L323.161,399.123L323.161,420.642L320.217,420.642L320.217,399.123ZM324.772,393.249L320.861,397.483L318.84,397.483L321.52,393.249L324.772,393.249Z" style="fill:rgb(32,32,58);"/>
            </g>
        </g>
    </g>
    <defs>
        <linearGradient id="_Linear1" x1="0" y1="0" x2="1" y2="0" gradientUnits="userSpaceOnUse" gradientTransform="matrix(0,-35.324993,35.324993,0,122.783782,433.629381)"><stop offset="0" style="stop-color:rgb(171,226,255);stop-opacity:1"/><stop offset="1" style="stop-color:rgb(235,250,255);stop-opacity:1"/></linearGradient>
    </defs>
</svg>
