<?xml version="1.0" encoding="UTF-8" standalone="no"?>
<!DOCTYPE svg PUBLIC "-//W3C//DTD SVG 1.1//EN" "http://www.w3.org/Graphics/SVG/1.1/DTD/svg11.dtd">
<svg width="100%" height="100%" viewBox="0 0 1276 207" version="1.1" xmlns="http://www.w3.org/2000/svg" xmlns:xlink="http://www.w3.org/1999/xlink" xml:space="preserve" xmlns:serif="http://www.serif.com/" style="fill-rule:evenodd;clip-rule:evenodd;stroke-linejoin:round;stroke-miterlimit:2;">
    <g transform="matrix(1,0,0,1,-997.416266,-1111.831024)">
        <g transform="matrix(7.54905,0,0,7.54905,761.090072,-2192.120519)">
            <path d="M36.198,451.727L37.033,464.955L31.335,464.955L32.214,451.727L36.198,451.727ZM31.305,446.659C31.305,445.79 31.513,445.118 31.928,444.645C32.343,444.171 33.097,443.934 34.191,443.934C35.295,443.934 36.054,444.171 36.469,444.645C36.884,445.118 37.092,445.79 37.092,446.659C37.092,447.518 36.884,448.187 36.469,448.666C36.054,449.144 35.295,449.383 34.191,449.383C33.107,449.383 32.355,449.144 31.935,448.666C31.515,448.187 31.305,447.518 31.305,446.659ZM48.312,460.794C46.525,460.794 44.955,460.519 43.603,459.967C42.25,459.415 41.169,458.648 40.358,457.667C39.548,456.686 38.942,455.56 38.542,454.291C38.141,453.021 37.941,451.625 37.941,450.101C37.941,448.89 38.063,447.757 38.307,446.703C38.552,445.648 38.942,444.671 39.479,443.773C40.016,442.875 40.683,442.105 41.479,441.466C42.275,440.826 43.254,440.326 44.416,439.964C45.578,439.603 46.877,439.422 48.312,439.422C49.601,439.422 50.778,439.562 51.843,439.84C52.907,440.118 53.876,440.548 54.75,441.129C55.624,441.71 56.357,442.489 56.948,443.465C57.538,444.442 57.951,445.594 58.185,446.922L53.088,448.182C52.853,446.795 52.309,445.719 51.454,444.952C50.6,444.186 49.601,443.802 48.459,443.802C46.877,443.802 45.636,444.364 44.738,445.487C43.84,446.61 43.39,448.148 43.39,450.101C43.39,452.054 43.84,453.595 44.738,454.723C45.636,455.851 46.877,456.415 48.459,456.415C48.849,456.415 49.24,456.368 49.631,456.275C50.021,456.183 50.412,456.031 50.802,455.821C51.193,455.611 51.547,455.35 51.865,455.038C52.182,454.725 52.458,454.332 52.692,453.858C52.927,453.385 53.088,452.855 53.176,452.269L58.185,453.294C57.951,454.623 57.538,455.775 56.948,456.751C56.357,457.728 55.624,458.507 54.75,459.088C53.876,459.669 52.907,460.099 51.843,460.377C50.778,460.655 49.601,460.794 48.312,460.794ZM67.267,460.794C65.793,460.794 64.509,460.575 63.415,460.135C62.321,459.696 61.457,459.083 60.822,458.297C60.187,457.511 59.719,456.625 59.416,455.638C59.113,454.652 58.962,453.558 58.962,452.357C58.962,451.41 59.052,450.526 59.233,449.706C59.413,448.885 59.714,448.116 60.134,447.398C60.553,446.681 61.078,446.07 61.708,445.567C62.338,445.064 63.124,444.667 64.067,444.374C65.009,444.081 66.076,443.934 67.267,443.934C68.732,443.934 70.011,444.154 71.105,444.593C72.199,445.033 73.066,445.646 73.705,446.432C74.345,447.218 74.816,448.102 75.119,449.083C75.422,450.064 75.573,451.156 75.573,452.357C75.573,453.558 75.422,454.652 75.119,455.638C74.816,456.625 74.345,457.511 73.705,458.297C73.066,459.083 72.199,459.696 71.105,460.135C70.011,460.575 68.732,460.794 67.267,460.794ZM64.806,449.061C64.211,449.833 63.913,450.931 63.913,452.357C63.913,453.783 64.213,454.884 64.814,455.66C65.414,456.437 66.232,456.825 67.267,456.825C68.293,456.825 69.108,456.434 69.714,455.653C70.319,454.872 70.622,453.773 70.622,452.357C70.622,450.941 70.319,449.842 69.714,449.061C69.108,448.28 68.293,447.889 67.267,447.889C66.232,447.889 65.412,448.28 64.806,449.061ZM87.145,450.072C87.145,449.369 87.018,448.819 86.764,448.424C86.511,448.028 86.037,447.831 85.344,447.831C84.953,447.831 84.606,447.889 84.303,448.006C84.001,448.124 83.698,448.355 83.395,448.702C83.093,449.049 82.836,449.508 82.626,450.079C82.416,450.65 82.24,451.422 82.099,452.394C81.957,453.365 81.872,454.505 81.843,455.814L81.843,460.458L76.613,460.458L76.613,444.374L81.843,444.139L81.711,453.617L81.769,453.617C82.121,447.162 84.181,443.934 87.951,443.934C88.556,443.934 89.101,444.002 89.584,444.139C90.068,444.276 90.458,444.442 90.756,444.637C91.054,444.833 91.313,445.091 91.532,445.414C91.752,445.736 91.913,446.024 92.016,446.278C92.118,446.532 92.199,446.842 92.258,447.208C92.316,447.574 92.348,447.848 92.353,448.028C92.358,448.209 92.36,448.441 92.36,448.724L92.36,460.458L87.145,460.458L87.145,450.072ZM101.75,460.794C100.275,460.794 98.991,460.575 97.897,460.135C96.803,459.696 95.939,459.083 95.304,458.297C94.67,457.511 94.201,456.625 93.898,455.638C93.595,454.652 93.444,453.558 93.444,452.357C93.444,451.41 93.534,450.526 93.715,449.706C93.896,448.885 94.196,448.116 94.616,447.398C95.036,446.681 95.561,446.07 96.191,445.567C96.821,445.064 97.607,444.667 98.549,444.374C99.491,444.081 100.558,443.934 101.75,443.934C103.215,443.934 104.494,444.154 105.588,444.593C106.681,445.033 107.548,445.646 108.188,446.432C108.827,447.218 109.299,448.102 109.601,449.083C109.904,450.064 110.055,451.156 110.055,452.357C110.055,453.558 109.904,454.652 109.601,455.638C109.299,456.625 108.827,457.511 108.188,458.297C107.548,459.083 106.681,459.696 105.588,460.135C104.494,460.575 103.215,460.794 101.75,460.794ZM99.289,449.061C98.693,449.833 98.395,450.931 98.395,452.357C98.395,453.783 98.696,454.884 99.296,455.66C99.897,456.437 100.715,456.825 101.75,456.825C102.775,456.825 103.591,456.434 104.196,455.653C104.802,454.872 105.104,453.773 105.104,452.357C105.104,450.941 104.802,449.842 104.196,449.061C103.591,448.28 102.775,447.889 101.75,447.889C100.715,447.889 99.894,448.28 99.289,449.061ZM99.977,442.367L102.013,437.665L107.155,437.665L103.522,442.367L99.977,442.367ZM119.137,460.794C117.975,460.794 116.933,460.648 116.01,460.355C115.087,460.062 114.316,459.662 113.696,459.154C113.075,458.646 112.558,458.033 112.143,457.315C111.728,456.598 111.43,455.829 111.249,455.008C111.069,454.188 110.978,453.304 110.978,452.357C110.978,451.41 111.069,450.526 111.249,449.706C111.43,448.885 111.728,448.116 112.143,447.398C112.558,446.681 113.075,446.07 113.696,445.567C114.316,445.064 115.087,444.667 116.01,444.374C116.933,444.081 117.975,443.934 119.137,443.934C123.688,443.934 126.296,445.97 126.96,450.042L122.463,451.185C122.297,450.199 121.918,449.403 121.327,448.797C120.737,448.192 120.055,447.889 119.284,447.889C118.249,447.889 117.431,448.277 116.83,449.054C116.23,449.83 115.929,450.931 115.929,452.357C115.929,453.783 116.23,454.884 116.83,455.66C117.431,456.437 118.249,456.825 119.284,456.825C120.085,456.825 120.783,456.551 121.379,456.004C121.974,455.458 122.336,454.71 122.463,453.763L126.96,454.671C126.296,458.753 123.688,460.794 119.137,460.794ZM135.866,460.794C134.704,460.794 133.661,460.648 132.739,460.355C131.816,460.062 131.044,459.662 130.424,459.154C129.804,458.646 129.286,458.033 128.871,457.315C128.456,456.598 128.158,455.829 127.978,455.008C127.797,454.188 127.707,453.304 127.707,452.357C127.707,451.175 127.865,450.086 128.183,449.09C128.5,448.094 128.979,447.206 129.618,446.424C130.258,445.643 131.11,445.033 132.175,444.593C133.239,444.154 134.469,443.934 135.866,443.934C136.794,443.934 137.646,444.017 138.422,444.183C139.198,444.349 139.95,444.647 140.678,445.077C141.406,445.506 142.006,446.058 142.48,446.732C142.953,447.406 143.305,448.285 143.534,449.369C143.764,450.453 143.815,451.698 143.688,453.104L132.614,453.104C132.643,454.295 132.98,455.25 133.625,455.968C134.269,456.686 135.065,457.044 136.012,457.044C136.725,457.044 137.358,456.844 137.909,456.444C138.461,456.043 138.849,455.399 139.074,454.51L143.688,455.594C143.337,457.264 142.507,458.548 141.198,459.447C139.889,460.345 138.112,460.794 135.866,460.794ZM132.658,451.361L139.191,451.361C139.191,450.121 138.884,449.198 138.268,448.592C137.653,447.987 136.901,447.684 136.012,447.684C135.016,447.684 134.225,447.994 133.639,448.614C133.053,449.234 132.726,450.15 132.658,451.361ZM155.348,450.072C155.348,449.369 155.221,448.819 154.968,448.424C154.714,448.028 154.24,447.831 153.547,447.831C153.156,447.831 152.809,447.889 152.507,448.006C152.204,448.124 151.901,448.355 151.598,448.702C151.296,449.049 151.039,449.508 150.829,450.079C150.619,450.65 150.444,451.422 150.302,452.394C150.16,453.365 150.075,454.505 150.046,455.814L150.046,460.458L144.816,460.458L144.816,444.374L150.046,444.139L149.914,453.617L149.972,453.617C150.324,447.162 152.385,443.934 156.154,443.934C156.76,443.934 157.304,444.002 157.787,444.139C158.271,444.276 158.661,444.442 158.959,444.637C159.257,444.833 159.516,445.091 159.736,445.414C159.955,445.736 160.116,446.024 160.219,446.278C160.322,446.532 160.402,446.842 160.461,447.208C160.519,447.574 160.551,447.848 160.556,448.028C160.561,448.209 160.563,448.441 160.563,448.724L160.563,460.458L155.348,460.458L155.348,450.072ZM169.953,460.794C168.478,460.794 167.194,460.575 166.1,460.135C165.007,459.696 164.142,459.083 163.508,458.297C162.873,457.511 162.404,456.625 162.101,455.638C161.799,454.652 161.647,453.558 161.647,452.357C161.647,451.41 161.738,450.526 161.918,449.706C162.099,448.885 162.399,448.116 162.819,447.398C163.239,446.681 163.764,446.07 164.394,445.567C165.024,445.064 165.81,444.667 166.752,444.374C167.695,444.081 168.761,443.934 169.953,443.934C171.418,443.934 172.697,444.154 173.791,444.593C174.885,445.033 175.751,445.646 176.391,446.432C177.031,447.218 177.502,448.102 177.804,449.083C178.107,450.064 178.259,451.156 178.259,452.357C178.259,453.558 178.107,454.652 177.804,455.638C177.502,456.625 177.031,457.511 176.391,458.297C175.751,459.083 174.885,459.696 173.791,460.135C172.697,460.575 171.418,460.794 169.953,460.794ZM167.492,449.061C166.896,449.833 166.598,450.931 166.598,452.357C166.598,453.783 166.899,454.884 167.499,455.66C168.1,456.437 168.918,456.825 169.953,456.825C170.978,456.825 171.794,456.434 172.399,455.653C173.005,454.872 173.307,453.773 173.307,452.357C173.307,450.941 173.005,449.842 172.399,449.061C171.794,448.28 170.978,447.889 169.953,447.889C168.918,447.889 168.097,448.28 167.492,449.061ZM186.081,460.794C182.839,460.794 180.29,459.891 178.434,458.084L180.763,454.584C181.418,455.521 182.214,456.214 183.151,456.664C184.089,457.113 185.055,457.337 186.052,457.337C186.882,457.337 187.49,457.213 187.875,456.964C188.261,456.715 188.454,456.4 188.454,456.019C188.454,455.716 188.322,455.453 188.058,455.228C187.795,455.003 187.446,454.823 187.011,454.686C186.576,454.549 186.081,454.403 185.524,454.247C184.968,454.09 184.399,453.937 183.818,453.785C183.237,453.634 182.668,453.424 182.111,453.155C181.554,452.887 181.059,452.582 180.624,452.24C180.19,451.898 179.841,451.446 179.577,450.885C179.313,450.323 179.181,449.686 179.181,448.973C179.181,447.411 179.816,446.18 181.086,445.282C182.355,444.383 184.069,443.934 186.227,443.934C187.546,443.934 188.857,444.156 190.16,444.601C191.464,445.045 192.604,445.751 193.581,446.717L190.49,449.383C189.289,447.928 187.887,447.201 186.286,447.201C185.622,447.201 185.141,447.311 184.843,447.53C184.545,447.75 184.396,448.021 184.396,448.343C184.396,448.617 184.531,448.866 184.799,449.09C185.068,449.315 185.422,449.505 185.861,449.662C186.301,449.818 186.801,449.986 187.363,450.167C187.924,450.348 188.495,450.526 189.076,450.702C189.657,450.877 190.229,451.109 190.79,451.397C191.352,451.686 191.852,452.005 192.292,452.357C192.731,452.709 193.085,453.158 193.354,453.705C193.622,454.251 193.757,454.862 193.757,455.536C193.757,457.206 193.102,458.5 191.794,459.417C190.485,460.335 188.581,460.794 186.081,460.794ZM195.397,452.987L194.548,439.759L200.246,439.759L199.382,452.987L195.397,452.987ZM194.489,458.055C194.489,457.196 194.699,456.527 195.119,456.048C195.539,455.57 196.301,455.331 197.404,455.331C198.488,455.331 199.238,455.57 199.653,456.048C200.068,456.527 200.275,457.196 200.275,458.055C200.275,458.924 200.068,459.598 199.653,460.077C199.238,460.555 198.488,460.794 197.404,460.794C196.301,460.794 195.539,460.555 195.119,460.077C194.699,459.598 194.489,458.924 194.489,458.055Z" style="fill:rgb(230,242,253);"/>
        </g>
    </g>
</svg>
