<?xml version="1.0" encoding="UTF-8" standalone="no"?>
<!DOCTYPE svg PUBLIC "-//W3C//DTD SVG 1.1//EN" "http://www.w3.org/Graphics/SVG/1.1/DTD/svg11.dtd">
<svg width="100%" height="100%" viewBox="0 0 23 23" version="1.1" xmlns="http://www.w3.org/2000/svg" xmlns:xlink="http://www.w3.org/1999/xlink" xml:space="preserve" xmlns:serif="http://www.serif.com/" style="fill-rule:evenodd;clip-rule:evenodd;stroke-linejoin:round;stroke-miterlimit:2;">
    <g transform="matrix(1,0,0,1,-1237.91592,-503.405412)">
        <g transform="matrix(1,0,0,0.546944,903.326675,0)">
            <g transform="matrix(0.933796,0,0,1.707297,330.854062,913.567612)">
                <path d="M20.8,4C24.8,4 28,7.2 27.9,11.2L27.9,20.7C27.9,24.7 24.7,27.9 20.7,27.9L11.2,27.9C7.2,27.9 4,24.7 4,20.7L4,11.2C4,7.2 7.2,4 11.3,4L20.8,4ZM20.317,25.8L20.7,25.8C23.5,25.8 25.7,23.5 25.7,20.8L25.7,11.3C25.7,8.5 23.4,6.3 20.7,6.3L11.2,6.3C8.4,6.3 6.2,8.6 6.2,11.3L6.2,20.8C6.2,23.6 8.5,25.8 11.2,25.8L16.659,25.8L16.659,17.919L14.705,17.919L14.705,15.094L16.659,15.094L16.659,13.199C16.659,12.366 16.681,11.075 17.286,10.271C17.928,9.423 18.805,8.847 20.317,8.847C22.781,8.847 23.813,9.202 23.813,9.202L23.327,12.093C23.327,12.093 22.515,11.857 21.756,11.857C20.996,11.857 20.317,12.13 20.317,12.889L20.317,15.094L23.43,15.094L23.216,17.919L20.317,17.919L20.317,25.8Z" style="fill:rgb(32,32,58);"/>
            </g>
        </g>
    </g>
</svg>
