<?xml version="1.0" encoding="UTF-8" standalone="no"?>
<!DOCTYPE svg PUBLIC "-//W3C//DTD SVG 1.1//EN" "http://www.w3.org/Graphics/SVG/1.1/DTD/svg11.dtd">
<svg width="100%" height="100%" viewBox="0 0 23 23" version="1.1" xmlns="http://www.w3.org/2000/svg" xmlns:xlink="http://www.w3.org/1999/xlink" xml:space="preserve" xmlns:serif="http://www.serif.com/" style="fill-rule:evenodd;clip-rule:evenodd;stroke-linejoin:round;stroke-miterlimit:2;">
    <g transform="matrix(1,0,0,1,-1185.592168,-503.405412)">
        <g transform="matrix(1,0,0,0.546944,903.326675,0)">
            <g transform="matrix(0.933796,0,0,1.707297,278.530311,913.567612)">
                <path d="M20.8,4C24.8,4 28,7.2 27.9,11.2L27.9,20.7C27.9,24.7 24.7,27.9 20.7,27.9L11.2,27.9C7.2,27.9 4,24.7 4,20.7L4,11.2C4,7.2 7.2,4 11.3,4L20.8,4ZM25.7,20.8L25.7,11.3C25.7,8.5 23.4,6.3 20.7,6.3L11.2,6.3C8.4,6.3 6.2,8.6 6.2,11.3L6.2,20.8C6.2,23.6 8.5,25.8 11.2,25.8L20.7,25.8C23.5,25.8 25.7,23.5 25.7,20.8ZM22.3,8.4C23.1,8.4 23.7,9 23.7,9.8C23.7,10.6 23.1,11.2 22.3,11.2C21.5,11.2 20.9,10.6 20.9,9.8C20.9,9 21.5,8.4 22.3,8.4ZM16,10.2C19.3,10.2 21.9,12.9 21.9,16.1C21.9,19.3 19.2,22 16,22C12.8,22 10.1,19.3 10.1,16.1C10.1,12.9 12.7,10.2 16,10.2ZM16,19.9C18.1,19.9 19.8,18.2 19.8,16.1C19.8,14 18.1,12.3 16,12.3C13.9,12.3 12.2,14 12.2,16.1C12.2,18.2 13.9,19.9 16,19.9Z" style="fill:rgb(32,32,58);"/>
            </g>
        </g>
    </g>
</svg>
