<?xml version="1.0" encoding="UTF-8" standalone="no"?>
<!DOCTYPE svg PUBLIC "-//W3C//DTD SVG 1.1//EN" "http://www.w3.org/Graphics/SVG/1.1/DTD/svg11.dtd">
<svg width="100%" height="100%" viewBox="0 0 23 23" version="1.1" xmlns="http://www.w3.org/2000/svg" xmlns:xlink="http://www.w3.org/1999/xlink" xml:space="preserve" xmlns:serif="http://www.serif.com/" style="fill-rule:evenodd;clip-rule:evenodd;stroke-linejoin:round;stroke-miterlimit:2;">
    <g transform="matrix(1,0,0,1,-1342.563423,-503.405412)">
        <g transform="matrix(1,0,0,0.546944,903.326675,0)">
            <g transform="matrix(0.05004,0,0,0.09149,440.840164,923.324495)">
                <path d="M281.464,-32C356.108,-32 415.824,27.715 413.958,102.36L413.958,279.64C413.958,354.285 354.242,414 279.598,414L102.317,414C27.673,414 -32.043,354.285 -32.043,279.64L-32.043,102.36C-32.043,27.715 27.673,-32 104.183,-32L281.464,-32ZM118.207,329.844L118.207,150.403C118.207,144.849 113.705,140.347 108.151,140.347L65.345,140.347C59.791,140.347 55.289,144.849 55.289,150.403L55.289,329.844C55.289,335.398 59.791,339.9 65.345,339.9L108.151,339.9C113.705,339.9 118.207,335.398 118.207,329.844ZM86.748,123.432C109.208,123.432 127.414,105.225 127.414,82.766C127.414,60.307 109.207,42.1 86.748,42.1C64.289,42.1 46.082,60.307 46.082,82.766C46.082,105.225 64.289,123.432 86.748,123.432ZM341.91,330.654L341.91,243.808C341.91,206.052 342.331,137.336 268.779,137.336C235.564,137.336 219.964,149.495 209.467,165.248L209.467,149.593C209.467,144.487 205.327,140.347 200.221,140.347L155.795,140.347C150.689,140.347 146.549,144.487 146.549,149.593L146.549,330.654C146.549,335.76 150.689,339.9 155.795,339.9L200.221,339.9C205.328,339.9 209.467,335.76 209.467,330.654L209.467,233.575C210.62,220.531 216.362,191.465 244.671,191.465C281.167,191.465 277.484,233.93 277.484,246.486L277.484,330.654C277.484,335.76 281.624,339.9 286.73,339.9L332.664,339.9C337.77,339.9 341.91,335.76 341.91,330.654Z" style="fill:rgb(32,32,58);"/>
            </g>
        </g>
    </g>
</svg>
