<?xml version="1.0" encoding="UTF-8" standalone="no"?>
<!DOCTYPE svg PUBLIC "-//W3C//DTD SVG 1.1//EN" "http://www.w3.org/Graphics/SVG/1.1/DTD/svg11.dtd">
<svg width="100%" height="100%" viewBox="0 0 354 27" version="1.1" xmlns="http://www.w3.org/2000/svg" xmlns:xlink="http://www.w3.org/1999/xlink" xml:space="preserve" xmlns:serif="http://www.serif.com/" style="fill-rule:evenodd;clip-rule:evenodd;stroke-linejoin:round;stroke-miterlimit:2;">
    <g transform="matrix(1,0,0,1,-1126.556656,-131.938792)">
        <g transform="matrix(1,0,0,0.546944,903.326675,0)">
            <g transform="matrix(0.89734,0,0,0.511876,41.063975,111.657744)">
                <path d="M217.552,254.125L223.641,254.125L223.641,328.056L217.552,328.056L217.552,298.284L209.096,298.284L209.096,328.056L203.007,328.056L203.007,254.125L209.096,254.125L209.096,282.065L217.552,282.065L217.552,254.125ZM234.104,329.259C232.461,329.259 231.03,328.474 229.811,326.905C228.592,325.335 227.629,323.146 226.922,320.338C226.214,317.53 225.692,314.365 225.355,310.842C225.017,307.319 224.849,303.412 224.849,299.122C224.849,295.738 224.949,292.581 225.151,289.651C225.352,286.721 225.687,283.974 226.154,281.411C226.622,278.847 227.207,276.667 227.909,274.87C228.611,273.074 229.487,271.653 230.538,270.606C231.588,269.56 232.777,269.037 234.104,269.037C235.737,269.037 237.163,269.821 238.381,271.391C239.6,272.961 240.566,275.149 241.279,277.957C241.992,280.765 242.517,283.922 242.854,287.428C243.192,290.933 243.36,294.831 243.36,299.122C243.36,303.412 243.192,307.319 242.854,310.842C242.517,314.365 241.992,317.53 241.279,320.338C240.566,323.146 239.6,325.335 238.381,326.905C237.163,328.474 235.737,329.259 234.104,329.259ZM231.362,287.349C230.698,290.105 230.366,294.029 230.366,299.122C230.366,304.214 230.701,308.147 231.37,310.92C232.039,313.693 232.951,315.08 234.104,315.08C235.247,315.08 236.156,313.685 236.831,310.894C237.505,308.104 237.843,304.179 237.843,299.122C237.843,294.064 237.505,290.14 236.831,287.349C236.156,284.559 235.247,283.163 234.104,283.163C232.951,283.163 232.037,284.559 231.362,287.349ZM244.519,328.056L244.519,254.125L250.347,253.131L250.347,328.056L244.519,328.056ZM268.418,328.056L262.639,328.056L262.639,308.435C262.4,314.993 261.747,320.103 260.68,323.765C259.614,327.428 258.205,329.259 256.452,329.259C254.896,329.259 253.683,327.951 252.812,325.335C251.941,322.719 251.506,319.161 251.506,314.661C251.506,308.418 252.388,303.639 254.151,300.325C255.914,297.011 258.743,294.709 262.639,293.419L262.639,292.058C262.639,289.651 262.411,287.855 261.954,286.669C261.497,285.483 260.697,284.89 259.554,284.89C258.585,284.89 257.516,285.239 256.346,285.937C255.176,286.634 254.107,287.593 253.139,288.814L252.306,273.641C255.364,270.571 258.205,269.037 260.827,269.037C262.318,269.037 263.567,269.481 264.574,270.371C265.58,271.26 266.361,272.621 266.916,274.452C267.471,276.283 267.86,278.367 268.083,280.704C268.307,283.041 268.418,285.867 268.418,289.18L268.418,328.056ZM257.024,310.162C257.024,312.254 257.209,313.885 257.579,315.054C257.949,316.222 258.477,316.806 259.162,316.806C259.619,316.806 260.041,316.588 260.427,316.152C260.814,315.716 261.181,314.993 261.529,313.981C261.877,312.97 262.15,311.505 262.345,309.586C262.541,307.668 262.639,305.365 262.639,302.68L262.639,298.703C260.637,299.61 259.2,300.979 258.33,302.81C257.459,304.642 257.024,307.092 257.024,310.162ZM282.963,307.284C282.963,309.795 283.102,311.757 283.379,313.17C283.657,314.583 284.182,315.289 284.955,315.289C285.39,315.289 285.776,315.08 286.114,314.661C286.451,314.243 286.788,313.423 287.126,312.202C287.463,310.981 287.749,309.342 287.983,307.284C288.217,305.226 288.415,302.47 288.579,299.017C288.742,295.564 288.84,291.5 288.872,286.826L288.872,270.815L294.684,270.188L294.684,328.056L288.872,328.056L289.003,294.622L288.905,294.622C288.513,317.713 286.228,329.259 282.049,329.259C281.374,329.259 280.767,329.015 280.229,328.527C279.69,328.038 279.255,327.437 278.923,326.721C278.591,326.006 278.302,325.082 278.058,323.948C277.813,322.815 277.633,321.794 277.519,320.888C277.405,319.981 277.315,318.864 277.25,317.539C277.184,316.213 277.149,315.228 277.143,314.583C277.138,313.937 277.135,313.109 277.135,312.097L277.135,270.188L282.963,270.188L282.963,307.284ZM308.086,290.959C308.086,288.448 307.945,286.486 307.662,285.073C307.379,283.66 306.851,282.954 306.078,282.954C305.643,282.954 305.257,283.163 304.919,283.582C304.582,284.001 304.244,284.829 303.907,286.067C303.57,287.306 303.284,288.945 303.05,290.986C302.816,293.026 302.62,295.782 302.462,299.252C302.305,302.723 302.209,306.796 302.177,311.47L302.177,328.056L296.349,328.056L296.349,270.606L302.177,269.769L302.03,303.621L302.095,303.621C302.487,280.565 304.783,269.037 308.984,269.037C309.659,269.037 310.265,269.281 310.804,269.769C311.343,270.257 311.778,270.85 312.11,271.548C312.442,272.246 312.73,273.17 312.975,274.321C313.22,275.472 313.4,276.501 313.514,277.408C313.628,278.315 313.718,279.422 313.783,280.73C313.849,282.039 313.884,283.015 313.889,283.66C313.895,284.306 313.898,285.134 313.898,286.146L313.898,328.056L308.086,328.056L308.086,290.959ZM330.548,347.467C329.808,347.467 329.174,347.45 328.647,347.415C328.119,347.38 327.534,347.284 326.892,347.127C326.25,346.97 325.705,346.752 325.259,346.473C324.813,346.194 324.367,345.802 323.921,345.296C323.474,344.79 323.118,344.18 322.851,343.465C322.585,342.749 322.367,341.869 322.198,340.822C322.03,339.776 321.945,338.59 321.945,337.264C321.945,335.834 322.035,334.57 322.215,333.471C322.394,332.372 322.636,331.439 322.941,330.672C323.246,329.904 323.665,329.224 324.198,328.631C324.731,328.038 325.289,327.541 325.871,327.14C326.454,326.739 327.175,326.329 328.034,325.91C326.315,325.701 325.072,324.899 324.304,323.504C323.537,322.108 323.153,319.911 323.153,316.911C323.153,313.807 323.63,311.522 324.582,310.057C325.534,308.592 327.218,307.737 329.634,307.493C327.599,306.621 326.032,304.511 324.933,301.162C323.834,297.814 323.284,293.558 323.284,288.396C323.284,282.152 324.089,277.364 325.7,274.033C327.311,270.702 329.77,269.037 333.079,269.037C335.201,269.037 338.101,269.42 341.779,270.188L341.779,271.182L335.723,271.705C338.64,274.321 340.098,279.885 340.098,288.396C340.098,294.36 339.363,299.104 337.894,302.627C336.425,306.15 334.363,307.912 331.707,307.912C330.586,307.912 329.727,308.069 329.128,308.383C328.53,308.697 328.149,309.098 327.985,309.586C327.822,310.074 327.741,310.737 327.741,311.574C327.741,312.481 327.879,313.1 328.157,313.432C328.434,313.763 328.84,313.929 329.373,313.929L334.221,313.929C334.765,313.929 335.255,313.964 335.69,314.033C336.126,314.103 336.613,314.269 337.151,314.53C337.69,314.792 338.164,315.15 338.572,315.603C338.98,316.057 339.388,316.693 339.796,317.513C340.204,318.333 340.539,319.292 340.8,320.391C341.061,321.489 341.273,322.858 341.437,324.498C341.6,326.137 341.681,327.968 341.681,329.992C341.681,334.073 341.322,337.369 340.604,339.88C339.886,342.392 338.708,344.284 337.07,345.557C335.432,346.831 333.258,347.467 330.548,347.467ZM328.704,288.396C328.704,290.802 328.973,292.712 329.512,294.125C330.05,295.538 330.782,296.244 331.707,296.244C332.632,296.244 333.362,295.538 333.895,294.125C334.428,292.712 334.695,290.802 334.695,288.396C334.695,286.024 334.428,284.149 333.895,282.771C333.362,281.393 332.632,280.704 331.707,280.704C330.782,280.704 330.05,281.393 329.512,282.771C328.973,284.149 328.704,286.024 328.704,288.396ZM326.663,330.515C326.663,332.05 326.973,333.131 327.594,333.759C328.214,334.387 329.286,334.701 330.81,334.701C334.238,334.701 335.952,333.026 335.952,329.678C335.952,328.841 335.873,328.152 335.715,327.611C335.557,327.07 335.318,326.687 334.997,326.46C334.676,326.233 334.379,326.085 334.107,326.015C333.835,325.945 333.492,325.91 333.079,325.91L328.671,325.91C327.953,326.329 327.439,326.905 327.128,327.637C326.818,328.37 326.663,329.329 326.663,330.515ZM348.489,307.284C348.489,309.795 348.627,311.757 348.905,313.17C349.182,314.583 349.708,315.289 350.48,315.289C350.916,315.289 351.302,315.08 351.639,314.661C351.977,314.243 352.314,313.423 352.651,312.202C352.989,310.981 353.274,309.342 353.508,307.284C353.742,305.226 353.941,302.47 354.104,299.017C354.268,295.564 354.365,291.5 354.398,286.826L354.398,270.815L360.21,270.188L360.21,328.056L354.398,328.056L354.529,294.622L354.431,294.622C354.039,317.713 351.754,329.259 347.575,329.259C346.9,329.259 346.293,329.015 345.754,328.527C345.216,328.038 344.78,327.437 344.448,326.721C344.117,326.006 343.828,325.082 343.583,323.948C343.338,322.815 343.159,321.794 343.045,320.888C342.93,319.981 342.841,318.864 342.775,317.539C342.71,316.213 342.675,315.228 342.669,314.583C342.664,313.937 342.661,313.109 342.661,312.097L342.661,270.188L348.489,270.188L348.489,307.284ZM369.776,329.259C366.162,329.259 363.322,326.033 361.254,319.58L363.85,307.075C364.579,310.423 365.466,312.9 366.511,314.504C367.555,316.109 368.633,316.911 369.743,316.911C370.668,316.911 371.345,316.466 371.775,315.577C372.205,314.687 372.42,313.563 372.42,312.202C372.42,311.121 372.273,310.179 371.979,309.377C371.686,308.574 371.296,307.929 370.812,307.441C370.328,306.952 369.776,306.429 369.155,305.871C368.535,305.313 367.901,304.764 367.253,304.223C366.606,303.682 365.972,302.932 365.352,301.973C364.731,301.014 364.179,299.924 363.695,298.703C363.21,297.482 362.821,295.869 362.528,293.863C362.234,291.858 362.087,289.582 362.087,287.035C362.087,281.454 362.794,277.059 364.209,273.85C365.624,270.641 367.534,269.037 369.939,269.037C371.408,269.037 372.869,269.83 374.322,271.417C375.775,273.004 377.045,275.524 378.134,278.978L374.689,288.5C373.351,283.303 371.789,280.704 370.004,280.704C369.264,280.704 368.728,281.097 368.396,281.882C368.064,282.666 367.898,283.634 367.898,284.785C367.898,285.762 368.048,286.652 368.347,287.454C368.646,288.256 369.041,288.936 369.531,289.494C370.02,290.052 370.578,290.654 371.204,291.3C371.83,291.945 372.466,292.581 373.114,293.209C373.761,293.837 374.398,294.666 375.024,295.695C375.65,296.724 376.207,297.866 376.697,299.122C377.187,300.377 377.581,301.982 377.881,303.935C378.18,305.889 378.33,308.069 378.33,310.476C378.33,316.44 377.6,321.062 376.142,324.341C374.684,327.62 372.562,329.259 369.776,329.259ZM386.492,329.259C385.382,329.259 384.454,328.797 383.708,327.873C382.963,326.948 382.389,325.562 381.986,323.713C381.583,321.864 381.303,319.78 381.145,317.46C380.988,315.141 380.909,312.359 380.909,309.115L380.909,284.785L378.623,284.785L378.623,272.856L382.378,267.415L386.459,254.439L386.72,254.439L386.72,270.188L391.34,270.188L391.291,284.785L386.72,284.785L386.72,307.284C386.72,309.9 386.848,311.749 387.104,312.83C387.36,313.911 387.83,314.452 388.516,314.452L391.34,314.452L391.291,328.056C389.452,328.858 387.852,329.259 386.492,329.259ZM400.89,329.259C399.246,329.259 397.815,328.474 396.596,326.905C395.378,325.335 394.414,323.146 393.707,320.338C393,317.53 392.477,314.365 392.14,310.842C391.802,307.319 391.634,303.412 391.634,299.122C391.634,295.738 391.734,292.581 391.936,289.651C392.137,286.721 392.472,283.974 392.94,281.411C393.408,278.847 393.993,276.667 394.695,274.87C395.397,273.074 396.273,271.653 397.323,270.606C398.373,269.56 399.562,269.037 400.89,269.037C402.522,269.037 403.948,269.821 405.167,271.391C406.386,272.961 407.351,275.149 408.064,277.957C408.777,280.765 409.302,283.922 409.639,287.428C409.977,290.933 410.146,294.831 410.146,299.122C410.146,303.412 409.977,307.319 409.639,310.842C409.302,314.365 408.777,317.53 408.064,320.338C407.351,323.146 406.386,325.335 405.167,326.905C403.948,328.474 402.522,329.259 400.89,329.259ZM398.147,287.349C397.483,290.105 397.151,294.029 397.151,299.122C397.151,304.214 397.486,308.147 398.155,310.92C398.825,313.693 399.736,315.08 400.89,315.08C402.032,315.08 402.941,313.685 403.616,310.894C404.291,308.104 404.628,304.179 404.628,299.122C404.628,294.064 404.291,290.14 403.616,287.349C402.941,284.559 402.032,283.163 400.89,283.163C399.736,283.163 398.822,284.559 398.147,287.349ZM427.123,329.259C425.828,329.259 424.666,328.736 423.638,327.689C422.609,326.643 421.749,325.213 421.058,323.399C420.367,321.585 419.79,319.396 419.328,316.833C418.865,314.269 418.534,311.522 418.332,308.592C418.131,305.662 418.03,302.505 418.03,299.122C418.03,295.738 418.131,292.581 418.332,289.651C418.534,286.721 418.865,283.974 419.328,281.411C419.79,278.847 420.367,276.667 421.058,274.87C421.749,273.074 422.609,271.653 423.638,270.606C424.666,269.56 425.828,269.037 427.123,269.037C432.194,269.037 435.1,276.309 435.84,290.855L430.828,294.936C430.643,291.413 430.222,288.57 429.563,286.407C428.905,284.245 428.146,283.163 427.286,283.163C426.132,283.163 425.221,284.55 424.552,287.323C423.882,290.096 423.548,294.029 423.548,299.122C423.548,304.214 423.882,308.147 424.552,310.92C425.221,313.693 426.132,315.08 427.286,315.08C428.178,315.08 428.957,314.103 429.62,312.15C430.284,310.196 430.687,307.528 430.828,304.145L435.84,307.389C435.1,321.969 432.194,329.259 427.123,329.259ZM445.928,329.259C444.285,329.259 442.854,328.474 441.635,326.905C440.416,325.335 439.453,323.146 438.746,320.338C438.038,317.53 437.516,314.365 437.179,310.842C436.841,307.319 436.673,303.412 436.673,299.122C436.673,295.738 436.773,292.581 436.975,289.651C437.176,286.721 437.51,283.974 437.978,281.411C438.446,278.847 439.031,276.667 439.733,274.87C440.435,273.074 441.311,271.653 442.362,270.606C443.412,269.56 444.601,269.037 445.928,269.037C447.561,269.037 448.986,269.821 450.205,271.391C451.424,272.961 452.39,275.149 453.103,277.957C453.816,280.765 454.341,283.922 454.678,287.428C455.016,290.933 455.184,294.831 455.184,299.122C455.184,303.412 455.016,307.319 454.678,310.842C454.341,314.365 453.816,317.53 453.103,320.338C452.39,323.146 451.424,325.335 450.205,326.905C448.986,328.474 447.561,329.259 445.928,329.259ZM443.186,287.349C442.522,290.105 442.19,294.029 442.19,299.122C442.19,304.214 442.525,308.147 443.194,310.92C443.863,313.693 444.775,315.08 445.928,315.08C447.071,315.08 447.98,313.685 448.655,310.894C449.329,308.104 449.667,304.179 449.667,299.122C449.667,294.064 449.329,290.14 448.655,287.349C447.98,284.559 447.071,283.163 445.928,283.163C444.775,283.163 443.861,284.559 443.186,287.349ZM468.08,290.959C468.08,288.448 467.939,286.486 467.656,285.073C467.373,283.66 466.845,282.954 466.073,282.954C465.637,282.954 465.251,283.163 464.914,283.582C464.576,284.001 464.239,284.829 463.901,286.067C463.564,287.306 463.278,288.945 463.044,290.986C462.81,293.026 462.615,295.782 462.457,299.252C462.299,302.723 462.204,306.796 462.171,311.47L462.171,328.056L456.343,328.056L456.343,270.606L462.171,269.769L462.024,303.621L462.089,303.621C462.481,280.565 464.777,269.037 468.978,269.037C469.653,269.037 470.26,269.281 470.798,269.769C471.337,270.257 471.772,270.85 472.104,271.548C472.436,272.246 472.725,273.17 472.97,274.321C473.214,275.472 473.394,276.501 473.508,277.408C473.623,278.315 473.712,279.422 473.778,280.73C473.843,282.039 473.878,283.015 473.884,283.66C473.889,284.306 473.892,285.134 473.892,286.146L473.892,328.056L468.08,328.056L468.08,290.959ZM484.356,329.259C482.712,329.259 481.281,328.474 480.062,326.905C478.844,325.335 477.88,323.146 477.173,320.338C476.466,317.53 475.943,314.365 475.606,310.842C475.269,307.319 475.1,303.412 475.1,299.122C475.1,295.738 475.201,292.581 475.402,289.651C475.603,286.721 475.938,283.974 476.406,281.411C476.874,278.847 477.459,276.667 478.161,274.87C478.863,273.074 479.739,271.653 480.789,270.606C481.839,269.56 483.028,269.037 484.356,269.037C485.988,269.037 487.414,269.821 488.633,271.391C489.852,272.961 490.817,275.149 491.53,277.957C492.243,280.765 492.768,283.922 493.106,287.428C493.443,290.933 493.612,294.831 493.612,299.122C493.612,303.412 493.443,307.319 493.106,310.842C492.768,314.365 492.243,317.53 491.53,320.338C490.817,323.146 489.852,325.335 488.633,326.905C487.414,328.474 485.988,329.259 484.356,329.259ZM481.613,287.349C480.949,290.105 480.617,294.029 480.617,299.122C480.617,304.214 480.952,308.147 481.621,310.92C482.291,313.693 483.202,315.08 484.356,315.08C485.498,315.08 486.407,313.685 487.082,310.894C487.757,308.104 488.094,304.179 488.094,299.122C488.094,294.064 487.757,290.14 487.082,287.349C486.407,284.559 485.498,283.163 484.356,283.163C483.202,283.163 482.288,284.559 481.613,287.349ZM503.733,329.259C502.438,329.259 501.276,328.736 500.247,327.689C499.219,326.643 498.359,325.213 497.668,323.399C496.977,321.585 496.4,319.396 495.938,316.833C495.475,314.269 495.143,311.522 494.942,308.592C494.741,305.662 494.64,302.505 494.64,299.122C494.64,295.738 494.741,292.581 494.942,289.651C495.143,286.721 495.475,283.974 495.938,281.411C496.4,278.847 496.977,276.667 497.668,274.87C498.359,273.074 499.219,271.653 500.247,270.606C501.276,269.56 502.438,269.037 503.733,269.037C508.804,269.037 511.71,276.309 512.45,290.855L507.438,294.936C507.253,291.413 506.832,288.57 506.173,286.407C505.515,284.245 504.756,283.163 503.896,283.163C502.742,283.163 501.831,284.55 501.162,287.323C500.492,290.096 500.158,294.029 500.158,299.122C500.158,304.214 500.492,308.147 501.162,310.92C501.831,313.693 502.742,315.08 503.896,315.08C504.788,315.08 505.566,314.103 506.23,312.15C506.894,310.196 507.297,307.528 507.438,304.145L512.45,307.389C511.71,321.969 508.804,329.259 503.733,329.259ZM522.375,329.259C521.08,329.259 519.918,328.736 518.89,327.689C517.861,326.643 517.002,325.213 516.311,323.399C515.619,321.585 515.043,319.396 514.58,316.833C514.118,314.269 513.786,311.522 513.584,308.592C513.383,305.662 513.282,302.505 513.282,299.122C513.282,294.901 513.459,291.012 513.813,287.454C514.167,283.896 514.7,280.722 515.413,277.931C516.126,275.141 517.075,272.961 518.261,271.391C519.448,269.821 520.819,269.037 522.375,269.037C523.409,269.037 524.358,269.333 525.224,269.926C526.089,270.519 526.927,271.583 527.738,273.118C528.548,274.652 529.218,276.623 529.745,279.03C530.273,281.437 530.665,284.576 530.921,288.448C531.177,292.32 531.234,296.767 531.092,301.79L518.751,301.79C518.784,306.046 519.159,309.455 519.877,312.019C520.596,314.583 521.483,315.865 522.538,315.865C523.333,315.865 524.037,315.15 524.652,313.719C525.267,312.289 525.7,309.987 525.95,306.813L531.092,310.685C530.7,316.65 529.775,321.236 528.317,324.445C526.859,327.655 524.878,329.259 522.375,329.259ZM518.8,295.564L526.081,295.564C526.081,291.134 525.738,287.838 525.052,285.675C524.367,283.512 523.529,282.431 522.538,282.431C521.428,282.431 520.547,283.538 519.894,285.753C519.241,287.968 518.876,291.238 518.8,295.564ZM532.349,328.056L532.349,270.606L538.177,269.769L538.03,306.08L538.063,306.08C538.171,297.535 538.465,290.55 538.944,285.126C539.423,279.701 540.057,275.769 540.846,273.327C541.635,270.885 542.606,269.664 543.76,269.664C544.304,269.664 544.892,269.839 545.523,270.188L545.523,287.977L544.494,287.977C543.896,287.977 543.401,288.012 543.009,288.082C542.617,288.151 542.201,288.317 541.76,288.579C541.319,288.84 540.96,289.224 540.683,289.73C540.405,290.236 540.12,290.916 539.826,291.77C539.532,292.625 539.301,293.689 539.132,294.962C538.963,296.235 538.803,297.761 538.65,299.54C538.498,301.319 538.386,303.386 538.316,305.74C538.245,308.095 538.199,310.789 538.177,313.824L538.177,328.056L532.349,328.056ZM546.715,328.056L546.715,254.125L552.542,253.131L552.542,328.056L546.715,328.056ZM562.99,329.259C561.347,329.259 559.915,328.474 558.697,326.905C557.478,325.335 556.515,323.146 555.807,320.338C555.1,317.53 554.577,314.365 554.24,310.842C553.903,307.319 553.734,303.412 553.734,299.122C553.734,295.738 553.835,292.581 554.036,289.651C554.237,286.721 554.572,283.974 555.04,281.411C555.508,278.847 556.093,276.667 556.795,274.87C557.497,273.074 558.373,271.653 559.423,270.606C560.473,269.56 561.662,269.037 562.99,269.037C564.622,269.037 566.048,269.821 567.267,271.391C568.486,272.961 569.452,275.149 570.164,277.957C570.877,280.765 571.402,283.922 571.74,287.428C572.077,290.933 572.246,294.831 572.246,299.122C572.246,303.412 572.077,307.319 571.74,310.842C571.402,314.365 570.877,317.53 570.164,320.338C569.452,323.146 568.486,325.335 567.267,326.905C566.048,328.474 564.622,329.259 562.99,329.259ZM560.247,287.349C559.584,290.105 559.252,294.029 559.252,299.122C559.252,304.214 559.586,308.147 560.256,310.92C560.925,313.693 561.836,315.08 562.99,315.08C564.133,315.08 565.041,313.685 565.716,310.894C566.391,308.104 566.728,304.179 566.728,299.122C566.728,294.064 566.391,290.14 565.716,287.349C565.041,284.559 564.133,283.163 562.99,283.163C561.836,283.163 560.922,284.559 560.247,287.349ZM580.963,329.259C577.35,329.259 574.509,326.033 572.442,319.58L575.037,307.075C575.766,310.423 576.653,312.9 577.698,314.504C578.743,316.109 579.82,316.911 580.93,316.911C581.855,316.911 582.533,316.466 582.963,315.577C583.392,314.687 583.607,313.563 583.607,312.202C583.607,311.121 583.461,310.179 583.167,309.377C582.873,308.574 582.484,307.929 581.999,307.441C581.515,306.952 580.963,306.429 580.343,305.871C579.722,305.313 579.088,304.764 578.441,304.223C577.793,303.682 577.159,302.932 576.539,301.973C575.919,301.014 575.366,299.924 574.882,298.703C574.398,297.482 574.009,295.869 573.715,293.863C573.421,291.858 573.274,289.582 573.274,287.035C573.274,281.454 573.982,277.059 575.396,273.85C576.811,270.641 578.721,269.037 581.126,269.037C582.595,269.037 584.056,269.83 585.509,271.417C586.962,273.004 588.233,275.524 589.321,278.978L585.877,288.5C584.538,283.303 582.976,280.704 581.191,280.704C580.451,280.704 579.915,281.097 579.583,281.882C579.252,282.666 579.086,283.634 579.086,284.785C579.086,285.762 579.235,286.652 579.535,287.454C579.834,288.256 580.228,288.936 580.718,289.494C581.208,290.052 581.766,290.654 582.391,291.3C583.017,291.945 583.654,292.581 584.301,293.209C584.949,293.837 585.585,294.666 586.211,295.695C586.837,296.724 587.395,297.866 587.884,299.122C588.374,300.377 588.769,301.982 589.068,303.935C589.367,305.889 589.517,308.069 589.517,310.476C589.517,316.44 588.788,321.062 587.329,324.341C585.871,327.62 583.749,329.259 580.963,329.259ZM590.088,343.491L590.888,310.057L596.667,310.057L594.757,343.491L590.088,343.491Z" style="fill:rgb(32,32,58);"/>
            </g>
        </g>
    </g>
</svg>
